<svg xmlns="http://www.w3.org/2000/svg" version="1.1" xmlns:xlink="http://www.w3.org/1999/xlink" width="512" height="512" x="0" y="0" viewBox="0 0 480 480" style="enable-background:new 0 0 512 512" xml:space="preserve" class=""><g><linearGradient xlink:href="#g" id="F" x1="377.87" x2="213.296" y1="349.634" y2="185.06" gradientUnits="userSpaceOnUse"></linearGradient><linearGradient id="h"><stop offset="0" stop-color="#e4f2ff"></stop><stop offset="1" stop-color="#b2cbff"></stop></linearGradient><linearGradient xlink:href="#h" id="G" x1="181.67" x2="328.33" y1="226.764" y2="226.764" gradientUnits="userSpaceOnUse"></linearGradient><linearGradient id="i"><stop offset="0" stop-color="#fff" stop-opacity="0"></stop><stop offset="1" stop-color="#fff"></stop></linearGradient><linearGradient id="I" x1="286.151" x2="422.752" y1="229.519" y2="113.896" gradientUnits="userSpaceOnUse"><stop offset="0" stop-color="#3f3ced" stop-opacity="0"></stop><stop offset=".266" stop-color="#3d3de6" stop-opacity=".266"></stop><stop offset=".657" stop-color="#3640d2" stop-opacity=".657"></stop><stop offset="1" stop-color="#2f43bb"></stop></linearGradient><linearGradient xlink:href="#i" id="J" x1="255" x2="255" y1="204.212" y2="135.064" gradientUnits="userSpaceOnUse"></linearGradient><linearGradient xlink:href="#b" id="K" x1="1062.579" x2="1032.916" y1="-367.177" y2="-396.84" gradientTransform="rotate(90 629.406 0)" gradientUnits="userSpaceOnUse"></linearGradient><linearGradient xlink:href="#a" id="L" x1="250.198" x2="259.939" y1="421.142" y2="430.884" gradientUnits="userSpaceOnUse"></linearGradient><linearGradient xlink:href="#b" id="M" x1="664.219" x2="634.557" y1="-367.177" y2="-396.84" gradientTransform="rotate(90 629.406 0)" gradientUnits="userSpaceOnUse"></linearGradient><linearGradient xlink:href="#a" id="N" x1="250.198" x2="259.939" y1="22.782" y2="32.524" gradientUnits="userSpaceOnUse"></linearGradient><linearGradient xlink:href="#b" id="O" x1="558.815" x2="529.152" y1="-927.413" y2="-957.075" gradientTransform="matrix(-1 0 0 1 607.406 1161.406)" gradientUnits="userSpaceOnUse"></linearGradient><linearGradient xlink:href="#a" id="P" x1="-310.038" x2="-300.296" y1="-82.622" y2="-72.881" gradientTransform="rotate(90 -277 255)" gradientUnits="userSpaceOnUse"></linearGradient><linearGradient xlink:href="#b" id="Q" x1="160.455" x2="130.792" y1="-927.413" y2="-957.075" gradientTransform="matrix(-1 0 0 1 607.406 1161.406)" gradientUnits="userSpaceOnUse"></linearGradient><linearGradient xlink:href="#b" id="ac" x1="464.651" x2="434.989" y1="-418.208" y2="-447.87" gradientTransform="scale(-1 1) rotate(67.72 -285.453 -778.974)" gradientUnits="userSpaceOnUse"></linearGradient><linearGradient xlink:href="#b" id="ae" x1="609.377" x2="579.716" y1="-1127.655" y2="-1157.317" gradientTransform="scale(-1 1) rotate(-22.28 3532.763 1216.553)" gradientUnits="userSpaceOnUse"></linearGradient><linearGradient xlink:href="#a" id="af" x1="-510.261" x2="-500.52" y1="-31.997" y2="-22.256" gradientTransform="scale(-1) rotate(-67.72 -380.58 -413.381)" gradientUnits="userSpaceOnUse"></linearGradient><linearGradient xlink:href="#b" id="ag" x1="211.027" x2="181.365" y1="-1127.637" y2="-1157.299" gradientTransform="scale(-1 1) rotate(-22.28 3532.763 1216.553)" gradientUnits="userSpaceOnUse"></linearGradient><linearGradient xlink:href="#a" id="ah" x1="-510.243" x2="-500.502" y1="-430.347" y2="-420.606" gradientTransform="scale(-1) rotate(-67.72 -380.58 -413.381)" gradientUnits="userSpaceOnUse"></linearGradient><linearGradient xlink:href="#b" id="ai" x1="588.922" x2="559.259" y1="-719.594" y2="-749.256" gradientTransform="scale(-1 1) rotate(22.7 -2310.83 -1837.88)" gradientUnits="userSpaceOnUse"></linearGradient><linearGradient xlink:href="#a" id="aj" x1="-102.249" x2="-92.507" y1="-52.543" y2="-42.801" gradientTransform="rotate(67.3 -276.875 254.564)" gradientUnits="userSpaceOnUse"></linearGradient><linearGradient xlink:href="#b" id="ak" x1="190.562" x2="160.9" y1="-719.606" y2="-749.269" gradientTransform="scale(-1 1) rotate(22.7 -2310.83 -1837.88)" gradientUnits="userSpaceOnUse"></linearGradient><linearGradient xlink:href="#a" id="an" x1="-783.221" x2="-773.479" y1="269.821" y2="279.563" gradientTransform="scale(-1) rotate(-22.7 -1269.453 -1379.044)" gradientUnits="userSpaceOnUse"></linearGradient><linearGradient xlink:href="#b" id="ao" x1="512.926" x2="483.264" y1="-1400.578" y2="-1430.241" gradientTransform="scale(-1 1) rotate(-67.3 1451.964 130.62)" gradientUnits="userSpaceOnUse"></linearGradient><linearGradient xlink:href="#a" id="ap" x1="-783.233" x2="-773.492" y1="-128.538" y2="-118.797" gradientTransform="scale(-1) rotate(-22.7 -1269.453 -1379.044)" gradientUnits="userSpaceOnUse"></linearGradient><linearGradient xlink:href="#i" id="aq" x1="274.156" x2="24.849" y1="263.805" y2="-218.272" gradientUnits="userSpaceOnUse"></linearGradient><linearGradient xlink:href="#g" id="ar" x1="323.541" x2="218.567" y1="100.605" y2="-34.685" gradientUnits="userSpaceOnUse"></linearGradient><linearGradient xlink:href="#g" id="as" x1="286.753" x2="235.14" y1="82.363" y2="30.75" gradientUnits="userSpaceOnUse"></linearGradient><linearGradient xlink:href="#h" id="at" x1="269.925" x2="210.561" y1="474.312" y2="414.948" gradientTransform="rotate(180 255 255)" gradientUnits="userSpaceOnUse"></linearGradient><linearGradient xlink:href="#a" id="au" x1="252.966" x2="289.151" y1="23.07" y2="59.256" gradientUnits="userSpaceOnUse"></linearGradient><linearGradient id="av" x1="275.938" x2="195.681" y1="42.238" y2="-20.864" gradientUnits="userSpaceOnUse"><stop offset="0" stop-color="#ff7044" stop-opacity="0"></stop><stop offset="1" stop-color="#ffa325"></stop></linearGradient><linearGradient xlink:href="#b" id="aw" x1="255" x2="255" y1="457.129" y2="482.872" gradientUnits="userSpaceOnUse"></linearGradient><linearGradient xlink:href="#b" id="ax" x1="255" x2="255" y1="475.925" y2="517.127" gradientUnits="userSpaceOnUse"></linearGradient><circle cx="255" cy="226.764" r="73.33" fill="url(#G)" opacity="1" data-original="url(#G)"></circle><path fill="url(#I)" d="M287.803 161.168c4.946 9.871 7.734 21.01 7.734 32.802 0 40.499-32.831 73.33-73.33 73.33-11.792 0-22.931-2.788-32.802-7.734 12.04 24.029 36.89 40.527 65.596 40.527 40.499 0 73.33-32.831 73.33-73.33-.001-28.705-16.499-53.555-40.528-65.595z" opacity="1" data-original="url(#I)"></path><path fill="url(#J)" d="M304.583 195.381c0 18.817-22.2 34.072-49.584 34.072s-49.583-15.255-49.583-34.072c0-18.818 22.199-34.073 49.583-34.073 27.385 0 49.584 15.255 49.584 34.073z" opacity="1" data-original="url(#J)"></path></g></svg>